<svg xmlns="http://www.w3.org/2000/svg" width="296" height="296" fill="none" viewBox="0 0 296 296">
    <path fill="#fff" d="M0 0h296v296H0z"/>
    <path fill="#E5E5E5" d="M159.529 140.047l-3.632 4.257c3.843 2.466 6.389 6.674 6.389 11.445 0 7.584-6.409 13.752-14.286 13.752s-14.286-6.168-14.286-13.752c0-4.771 2.546-8.979 6.389-11.445l-3.632-4.257c-5.117 3.489-8.471 9.223-8.471 15.702 0 10.614 8.974 19.251 20 19.251s20-8.637 20-19.251c0-6.479-3.354-12.213-8.471-15.702z"/>
    <path fill="#E5E5E5" d="M145.768 143.718a2.9 2.9 0 0 0 2.232 1.031 2.9 2.9 0 0 0 2.231-1.031l11.429-13.75a2.677 2.677 0 0 0-.212-3.663l-5.714-5.499a2.91 2.91 0 0 0-2.02-.806h-11.429c-.76 0-1.485.291-2.02.806l-5.714 5.499a2.674 2.674 0 0 0-.211 3.663l11.428 13.75z"/>
</svg>
